<svg width="486" height="370" viewBox="0 0 486 370" fill="none" xmlns="http://www.w3.org/2000/svg" data-v-b3573315=""><path d="M375.736 300.964H84.7357V82.9641H375.736V300.964Z" fill="white" data-v-b3573315=""></path><path d="M375.736 300.964H84.7357V82.9641H375.736V300.964ZM87.7357 85.9641V297.964H372.736V85.9641H87.7357Z" fill="#E6E6E6" data-v-b3573315=""></path><path d="M230.145 247.782C260.746 247.782 285.554 222.975 285.554 192.373C285.554 161.772 260.746 136.964 230.145 136.964C199.543 136.964 174.736 161.772 174.736 192.373C174.736 222.975 199.543 247.782 230.145 247.782Z" fill="#6C63FF" class="colored" data-v-b3573315=""></path><path d="M253.154 187.72H234.315V168.881C234.315 167.705 233.848 166.578 233.016 165.746C232.185 164.915 231.057 164.448 229.882 164.448C228.706 164.448 227.578 164.915 226.747 165.746C225.916 166.578 225.449 167.705 225.449 168.881V187.72H206.61C205.434 187.72 204.306 188.187 203.475 189.018C202.644 189.85 202.177 190.977 202.177 192.153C202.177 193.329 202.644 194.456 203.475 195.288C204.306 196.119 205.434 196.586 206.61 196.586H225.449V215.425C225.449 216.601 225.916 217.728 226.747 218.56C227.578 219.391 228.706 219.858 229.882 219.858C231.057 219.858 232.185 219.391 233.016 218.56C233.848 217.728 234.315 216.601 234.315 215.425V196.586H253.154C254.329 196.586 255.457 196.119 256.288 195.288C257.12 194.456 257.587 193.329 257.587 192.153C257.587 190.977 257.12 189.85 256.288 189.018C255.457 188.187 254.329 187.72 253.154 187.72Z" fill="white" data-v-b3573315=""></path><path d="M108.739 82.0542H1.52588e-05V0H108.739V82.0542Z" fill="white" data-v-b3573315=""></path><path d="M108.739 82.0542H1.52588e-05V0H108.739V82.0542ZM2.00002 80.0542H106.739V2H2.00002V80.0542Z" fill="#E6E6E6" data-v-b3573315=""></path><path d="M94.396 22.3481H14.342V27.6851H94.396V22.3481Z" fill="#E4E4E4" data-v-b3573315=""></path><path d="M94.396 38.358H14.342V43.695H94.396V38.358Z" fill="#E4E4E4" data-v-b3573315=""></path><path d="M94.396 54.3691H14.342V59.7061H94.396V54.3691Z" fill="#E4E4E4" data-v-b3573315=""></path><path d="M170.307 130.054H49V38.5166H170.307V130.054Z" fill="white" data-v-b3573315=""></path><path d="M170.307 130.054H49V38.5166H170.307V130.054ZM51.2311 127.823H168.075V40.7477H51.2311V127.823Z" fill="#E6E6E6" data-v-b3573315=""></path><path d="M154.306 63.4476H64.9996V69.4014H154.306V63.4476Z" fill="#6C63FF" class="colored" data-v-b3573315=""></path><path d="M154.306 81.3079H64.9996V87.2617H154.306V81.3079Z" fill="#6C63FF" class="colored" data-v-b3573315=""></path><path d="M154.306 99.1694H64.9996V105.123H154.306V99.1694Z" fill="#6C63FF" class="colored" data-v-b3573315=""></path><path d="M485.117 369.689H300V230H485.117V369.689Z" fill="white" data-v-b3573315=""></path><path d="M485.117 369.689H300V230H485.117V369.689ZM303.405 366.284H481.712V233.405H303.405V366.284Z" fill="#E6E6E6" data-v-b3573315=""></path><path d="M460.699 268.045H324.416V277.131H460.699V268.045Z" fill="#6C63FF" class="colored" data-v-b3573315=""></path><path d="M460.699 295.3H324.416V304.386H460.699V295.3Z" fill="#6C63FF" class="colored" data-v-b3573315=""></path><path d="M460.699 322.558H324.416V331.643H460.699V322.558Z" fill="#6C63FF" class="colored" data-v-b3573315=""></path></svg>